# xmcd
#
# Track frame offsets: 
#        150
#        13807
#        25493
#        29590
#        45705
#        53774
#        61258
#        77025
#        92100
#        103353
#        115310
#        117523
#        131526
#        151687
#        168437
#        186317
#        198954
#        218449
#        230834
#        234680
#        250896
#        263218
#        277481
#
# Disc length: 3900 seconds
#
# Revision: 6
# Processed by: cddbd v1.5.2PL0 Copyright (c) Steve Scherf et al.
# Submitted via: ExactAudioCopy v0.99pb5
#
DISCID=540f3a17
DTITLE=Various Artist - The Three Pickers  (2003)
DYEAR=2003
DGENRE=Bluegrass
TTITLE0=Earl Scruggs, Doc Watson and Ricky Skaggs - Feast Here Tonight
TTITLE1=Earl Scruggs, Doc Watson and Ricky Skaggs - What Would You Give 
TTITLE1=In Exchange For Your Soul?
TTITLE2=Earl Scruggs, Doc Watson and Ricky Skaggs - spoken introduction 
TTITLE2=1
TTITLE3=Earl Scruggs, Doc Watson and Ricky Skaggs - Who Will Sing For Me
TTITLE3=?
TTITLE4=Earl Scruggs, Doc Watson and Ricky Skaggs - spoken introduction 
TTITLE4=2
TTITLE5=Earl Scruggs, Doc Watson and Ricky Skaggs - Soldier's Joy
TTITLE6=Doc Watson and Richard Watson - Walk On Boy
TTITLE7=Doc Watson and Richard Watson - Daybreak Blues
TTITLE8=Earl Scruggs, Doc Watson and Ricky Skaggs - Don't Let Your Deal 
TTITLE8=Go Down
TTITLE9=Earl Scruggs, Doc Watson and Ricky Skaggs - Pick Along
TTITLE10=Earl Scruggs, Doc Watson and Ricky Skaggs - spoken introduction
TTITLE10=3
TTITLE11=Earl Scruggs, Doc Watson and Ricky Skaggs - What Is Home Withou
TTITLE11=t Love?
TTITLE12=Earl Scruggs with Family and Friends - Doin' My Time
TTITLE13=Earl Scruggs with Family and Friends - Earl's Breakdown
TTITLE14=Earl Scruggs, Doc Watson and Ricky Skaggs w A Kraus - The Storm
TTITLE14=s Are On The Ocean
TTITLE15=Earl Scruggs, Doc Watson and Ricky Skaggs w A Kraus - Down In T
TTITLE15=he Valley To Pray
TTITLE16=Earl Scruggs, Doc Watson and Ricky Skaggs w A Kraus - The Banks
TTITLE16=Of The Ohio
TTITLE17=Ricky Skaggs and Kentucky Thunder - Ridin' That Midnight Train
TTITLE18=Ricky Skaggs and Kentucky Thunder - spoken introduction 4
TTITLE19=Ricky Skaggs and Kentucky Thunder - Road To Spencer
TTITLE20=Earl Scruggs, Doc Watson and Ricky Skaggs w Ensemble - Katy Hil
TTITLE20=l
TTITLE21=Earl Scruggs, Doc Watson and Ricky Skaggs w Ensemble - Foggy Mo
TTITLE21=untain Top
TTITLE22=Earl Scruggs, Doc Watson and Ricky Skaggs w Ensemble - Roll In 
TTITLE22=My Baby's Arms
EXTD=YEAR: 2003 ID3G:  89
EXTT0=
EXTT1=
EXTT2=
EXTT3=
EXTT4=
EXTT5=
EXTT6=
EXTT7=
EXTT8=
EXTT9=
EXTT10=
EXTT11=
EXTT12=
EXTT13=
EXTT14=
EXTT15=
EXTT16=
EXTT17=
EXTT18=
EXTT19=
EXTT20=
EXTT21=
EXTT22=
PLAYORDER=
